<?xml version="1.0" encoding="UTF-8"?>
<svg width="70px" height="74px" viewBox="0 0 70 74" version="1.1" xmlns="http://www.w3.org/2000/svg" xmlns:xlink="http://www.w3.org/1999/xlink">
    <!-- Generator: Sketch 52.4 (67378) - http://www.bohemiancoding.com/sketch -->
    <title>Group</title>
    <desc>Created with Sketch.</desc>
    <g id="Symbols" stroke="none" stroke-width="1" fill="none" fill-rule="evenodd">
        <g id="Beaker_final" fill-rule="nonzero">
            <g id="Group">
                <g id="Beaker" fill="#C8F7C5">
                    <path d="M35,0 L49.2639136,5.84224027e-14 L49.2639136,8.6954617 C49.2639136,9.83071368 48.3378769,10.7510173 47.1955527,10.7510173 L46.1846537,10.7510173 C45.0423296,10.7510173 44.1162928,11.6713208 44.1162928,12.8065728 C44.1162928,12.814242 44.116336,12.8219112 44.1164224,12.8295799 L44.2798433,28.825453 C44.2979648,30.4343851 44.7907045,31.5440241 45.697007,32.8773438 L69.2907426,67.5876042 C70.5696247,69.4690498 70.0716489,72.0245831 68.1784826,73.2955475 C67.4945995,73.7546679 66.6881629,74 65.8628617,74 L4.1371383,74 C3.31183712,74 2.50540052,73.7546679 1.82151742,73.2955475 C-0.0716488982,72.0245831 -0.569624655,69.4690498 0.709257441,67.5876042 L24.302993,32.8773438 C25.2092955,31.5440241 25.7020352,30.4343851 25.7201567,28.825453 L25.8835776,12.8295799 C25.883664,12.8219112 25.8837072,12.814242 25.8837072,12.8065728 C25.8837072,11.6713208 24.9576704,10.7510173 23.8153463,10.7510173 L22.8044473,10.7510173 C21.6621231,10.7510173 20.7360864,9.83071368 20.7360864,8.6954617 L20.7360864,5.84224027e-14 L35,0 Z" id="Path"></path>
                </g>
                <ellipse id="Oval" fill="#FFFFFF" style="mix-blend-mode: soft-light;" cx="29.5774648" cy="35" rx="1.97183099" ry="2"></ellipse>
                <ellipse id="Oval-Copy" fill="#FFFFFF" style="mix-blend-mode: soft-light;" cx="37.9577465" cy="26.5" rx="2.46478873" ry="2.5"></ellipse>
                <ellipse id="Oval-Copy-2" fill="#FFFFFF" style="mix-blend-mode: soft-light;" cx="32.5352113" cy="11" rx="3.94366197" ry="4"></ellipse>
                <g id="Wave2" transform="translate(0.000000, 39.000000)" fill="#2ECC71">
                    <path d="M69.2907426,28.4842028 C70.5696247,30.3959872 70.0716489,32.992729 68.1784826,34.2841881 C67.4945995,34.7507118 66.6881629,35 65.8628617,35 L4.1371383,35 C3.31183712,35 2.50540052,34.7507118 1.82151742,34.2841881 C-0.0716488982,32.992729 -0.569624655,30.3959872 0.709257441,28.4842028 L19.25,1.47322112 C28.8570322,-0.830405729 29.2564607,7.9519704 35,7.9519704 C40.7435393,7.9519704 38.7565839,2.70714 44.3233177,0.570122734 C48.0344736,-0.854555443 50.6600344,0.161402225 52.2,3.61799574 L69.2907426,28.4842028 Z" id="Path" style="mix-blend-mode: multiply;"></path>
                </g>
                <g id="Wave1" transform="translate(17.500000, 33.000000)" fill="#FFFFFF">
                    <path d="M24.4812644,0 C21.8731732,1.94377132e-16 20.2368608,1.74193548 19.0047399,5.22580645 C16.8317871,11.7724609 13.6476272,13.3548387 9.83444427,13.3548387 C6.02126137,13.3548387 4.23742676,11.5684814 1.70422535,7.6126709 C1.70422535,14.8280039 7.11325773,18 15.3563149,18 C23.599372,18 30.5,12.5909124 30.5,4.99026343 C30.5,0.890136719 27.0893555,0 24.4812644,0 Z" id="Path" style="mix-blend-mode: soft-light;"></path>
                </g>
            </g>
        </g>
    </g>
</svg>